<svg data-v-fde0c5aa="" xmlns="http://www.w3.org/2000/svg" viewBox="0 0 300 300" class="iconLeft"><!----><defs data-v-fde0c5aa=""><!----></defs><rect data-v-fde0c5aa="" fill="transparent" x="0" y="0" width="300px" height="300px" class="logo-background-square"></rect><defs data-v-fde0c5aa=""><!----></defs><g data-v-fde0c5aa="" id="12c4eff4-ddf6-4103-aced-b5f6e8c4ff75" fill="#000000" transform="matrix(2.953632354736328,0,0,2.953632354736328,96.28015739586675,120.50798195853407)"><path d="M1.19 3.16L1.19 13.97L1.53 13.97L1.53 12.94C1.85 13.65 2.56 14.14 3.60 14.14C4.98 14.14 6.08 13.43 6.08 11.12L6.08 8.72C6.08 6.76 5.36 5.67 3.70 5.67C2.66 5.67 1.93 6.13 1.53 6.85L1.53 3.16ZM5.74 11.07C5.74 13.13 4.89 13.83 3.61 13.83C2.46 13.83 1.53 13.23 1.53 11.47L1.53 8.08C1.53 6.73 2.42 5.98 3.67 5.98C5.12 5.98 5.74 6.92 5.74 8.69ZM12.25 11.97C12.24 13.19 11.73 13.83 10.33 13.83C8.74 13.83 8.23 12.98 8.23 11.12L8.23 9.86L12.66 9.86L12.66 8.60C12.66 6.58 11.98 5.67 10.30 5.67C8.69 5.67 7.90 6.45 7.90 8.74L7.90 11.16C7.90 13.36 8.62 14.14 10.33 14.14C11.86 14.14 12.59 13.44 12.59 11.97ZM8.23 9.55L8.23 8.72C8.23 6.76 8.74 5.98 10.30 5.98C11.91 5.98 12.32 6.89 12.32 8.64L12.32 9.55ZM17.12 13.73C16.91 13.78 16.66 13.82 16.37 13.82C15.34 13.82 14.91 13.48 14.91 11.98L14.91 6.24L17.11 6.24L17.11 5.92L14.91 5.92L14.91 3.98L14.57 3.98L14.57 12.00C14.57 13.47 14.99 14.14 16.34 14.14C16.65 14.14 16.95 14.08 17.11 14.04ZM21.34 13.73C21.13 13.78 20.87 13.82 20.58 13.82C19.56 13.82 19.12 13.48 19.12 11.98L19.12 6.24L21.32 6.24L21.32 5.92L19.12 5.92L19.12 3.98L18.79 3.98L18.79 12.00C18.79 13.47 19.21 14.14 20.55 14.14C20.86 14.14 21.17 14.08 21.32 14.04ZM27.20 11.97C27.19 13.19 26.68 13.83 25.28 13.83C23.69 13.83 23.18 12.98 23.18 11.12L23.18 9.86L27.61 9.86L27.61 8.60C27.61 6.58 26.94 5.67 25.26 5.67C23.65 5.67 22.85 6.45 22.85 8.74L22.85 11.16C22.85 13.36 23.58 14.14 25.28 14.14C26.81 14.14 27.54 13.44 27.54 11.97ZM23.18 9.55L23.18 8.72C23.18 6.76 23.69 5.98 25.26 5.98C26.87 5.98 27.27 6.89 27.27 8.64L27.27 9.55ZM29.68 5.84L29.68 13.97L30.02 13.97L30.02 8.19C30.02 6.82 30.88 6.01 32.10 6.01C32.28 6.01 32.41 6.02 32.52 6.03L32.52 5.70C32.42 5.68 32.24 5.67 32.10 5.67C31.07 5.67 30.35 6.30 30.04 6.93L29.99 5.84ZM34.33 5.84L33.99 5.84L33.99 13.97L34.33 13.97ZM33.98 3.82L34.34 3.82L34.34 3.16L33.98 3.16ZM36.71 5.84L36.71 13.97L37.04 13.97L37.04 8.08C37.04 6.73 37.94 5.98 39.19 5.98C40.81 5.98 41.26 6.79 41.26 8.57L41.26 13.97L41.59 13.97L41.59 8.57C41.59 6.76 41.16 5.67 39.23 5.67C38.16 5.67 37.45 6.15 37.07 6.85L37.02 5.84ZM48.10 13.61C48.09 15.67 47.63 16.51 45.92 16.51C44.58 16.51 44.11 15.88 44.06 14.95L43.74 14.95C43.82 16.28 44.52 16.81 45.92 16.81C47.66 16.81 48.43 16.09 48.44 13.57L48.44 5.84L48.13 5.84L48.10 6.89C47.80 6.16 47.07 5.67 46.02 5.67C44.63 5.67 43.55 6.38 43.55 8.69L43.55 11.09C43.55 13.05 44.25 14.14 45.92 14.14C47.01 14.14 47.74 13.65 48.10 12.92ZM43.89 8.74C43.89 6.68 44.74 5.98 46.02 5.98C47.17 5.98 48.10 6.58 48.10 8.34L48.10 11.73C48.10 13.08 47.21 13.83 45.96 13.83C44.51 13.83 43.89 12.89 43.89 11.12ZM55.09 13.61C55.08 15.67 54.61 16.51 52.91 16.51C51.56 16.51 51.10 15.88 51.04 14.95L50.72 14.95C50.81 16.28 51.51 16.81 52.91 16.81C54.64 16.81 55.41 16.09 55.43 13.57L55.43 5.84L55.12 5.84L55.09 6.89C54.78 6.16 54.05 5.67 53.00 5.67C51.62 5.67 50.54 6.38 50.54 8.69L50.54 11.09C50.54 13.05 51.24 14.14 52.91 14.14C54.00 14.14 54.73 13.65 55.09 12.92ZM50.88 8.74C50.88 6.68 51.73 5.98 53.00 5.98C54.15 5.98 55.09 6.58 55.09 8.34L55.09 11.73C55.09 13.08 54.19 13.83 52.95 13.83C51.49 13.83 50.88 12.89 50.88 11.12Z"></path></g><defs data-v-fde0c5aa=""><linearGradient data-v-fde0c5aa="" gradientTransform="rotate(25)" id="caf7a4fc-5044-4297-88a3-634a9031edf5" x1="0%" y1="0%" x2="100%" y2="0%"><stop data-v-fde0c5aa="" offset="0%" stop-color="#B4373D" stop-opacity="1"></stop><stop data-v-fde0c5aa="" offset="100%" stop-color="#B23ACB" stop-opacity="1"></stop></linearGradient></defs><g data-v-fde0c5aa="" id="0cf05dcb-b5c0-4cb6-bc9a-a24c02b2d09c" stroke="none" fill="url(#caf7a4fc-5044-4297-88a3-634a9031edf5)" transform="matrix(0.618277907371521,0,0,0.618277907371521,31.97289802823927,119.14391243298553)"><g clip-rule="evenodd"><path d="M12.983 10.59l17.018 88.223-5.872-59.049 29.021-1.892-.054-9.883L64.549 1 53.622 18.977z"></path><path d="M59.389 54.548l5.16-53.541-8.74 39.716-19.612 1.045 1.57 20.462-7.766 36.583 12.057-39.899z"></path><path d="M62.8 67.182l.549-10.453-15.979 3.755-.032 11.797-17.337 26.532 21.68-27.616zM65.711 62.394l14.841-4.731 1.509-12.532-15.899 2.095zM72.07 44.502l10.988-1.417 1.581-10.278-8.079-.373L64.549 1l8.43 30.967z"></path><path d="M87.413 31.294l1.256-9.506-9.544-2.694L64.549 1l14.483 22.437-.422 7z"></path></g></g><!----></svg>